<svg width="43" height="40" viewBox="0 0 43 40" fill="none" xmlns="http://www.w3.org/2000/svg">
<path d="M11.9444 35C10.0333 35 8.12222 33.25 7.16667 32.5C2.38889 29 0.955556 27.75 0 27V37.5C0 38.8805 1.06977 40 2.38889 40H21.5C22.8191 40 23.8889 38.8805 23.8889 37.5V27C22.9333 27.75 21.5 29 16.7222 32.5C15.7667 33.25 13.8556 35 11.9444 35ZM21.5 20H2.38889C1.06977 20 0 21.1195 0 22.5V23.75C1.91111 25.25 1.67222 25.25 8.6 30.5C9.31667 31 10.75 32.5 11.9444 32.5C13.1389 32.5 14.5722 31 15.2889 30.75C22.2167 25.5 21.9778 25.5 23.8889 24V22.5C23.8889 21.1195 22.8191 20 21.5 20ZM40.6111 12.5H16.7222C15.4031 12.5 14.3333 13.6195 14.3333 15V17.5H21.5C23.9792 17.5 26.0232 19.4859 26.2561 22.0172L26.2778 22V32.5H40.6111C41.9302 32.5 43 31.3805 43 30V15C43 13.6195 41.9302 12.5 40.6111 12.5ZM38.2222 22.5H33.4444V17.5H38.2222V22.5ZM11.9444 15C11.9444 12.243 14.0877 10 16.7222 10H33.4444V2.5C33.4444 1.11953 32.3747 0 31.0556 0H7.16667C5.84755 0 4.77778 1.11953 4.77778 2.5V17.5H11.9444V15Z" fill="#8189D3"/>
</svg>
